<?xml version="1.0" encoding="UTF-8" standalone="no"?>
<!-- Created with Inkscape (http://www.inkscape.org/) -->

<svg
   xmlns:dc="http://purl.org/dc/elements/1.1/"
   xmlns:cc="http://creativecommons.org/ns#"
   xmlns:rdf="http://www.w3.org/1999/02/22-rdf-syntax-ns#"
   xmlns:svg="http://www.w3.org/2000/svg"
   xmlns="http://www.w3.org/2000/svg"
   xmlns:sodipodi="http://sodipodi.sourceforge.net/DTD/sodipodi-0.dtd"
   xmlns:inkscape="http://www.inkscape.org/namespaces/inkscape"
   width="16"
   height="16"
   id="svg2"
   version="1.1"
   inkscape:version="0.48.3.1 r9886"
   sodipodi:docname="icon_16px.svg">
  <defs
     id="defs4" />
  <sodipodi:namedview
     id="base"
     pagecolor="#ffffff"
     bordercolor="#666666"
     borderopacity="1.0"
     inkscape:pageopacity="0.0"
     inkscape:pageshadow="2"
     inkscape:zoom="31.678384"
     inkscape:cx="12.459439"
     inkscape:cy="7.2768769"
     inkscape:document-units="px"
     inkscape:current-layer="layer1"
     showgrid="true"
     fit-margin-top="0"
     fit-margin-left="0"
     fit-margin-right="0"
     fit-margin-bottom="0"
     inkscape:window-width="1280"
     inkscape:window-height="721"
     inkscape:window-x="0"
     inkscape:window-y="22"
     inkscape:window-maximized="1">
    <inkscape:grid
       type="xygrid"
       id="grid3163"
       empspacing="5"
       visible="true"
       enabled="true"
       snapvisiblegridlinesonly="true" />
  </sodipodi:namedview>
  <metadata
     id="metadata7">
    <rdf:RDF>
      <cc:Work
         rdf:about="">
        <dc:format>image/svg+xml</dc:format>
        <dc:type
           rdf:resource="http://purl.org/dc/dcmitype/StillImage" />
        <dc:title></dc:title>
      </cc:Work>
    </rdf:RDF>
  </metadata>
  <g
     inkscape:label="Ebene 1"
     inkscape:groupmode="layer"
     id="layer1"
     transform="translate(-100,-647.78125)">
    <path
       style="fill:#3465a4;fill-opacity:1;stroke:none"
       d="M 8 1 C 3.5817222 1 -3.4949796e-18 4.134006 0 8 C 0 9.5508814 0.58691616 10.964785 1.5625 12.125 L 0 16 L 4.40625 14.25 C 5.4866922 14.726089 6.7077515 15 8 15 C 12.418278 15 16 11.865994 16 8 C 16 4.134006 12.418278 1 8 1 z "
       transform="translate(100,647.78125)"
       id="path4055" />
    <path
       style="fill:#3465a4;fill-opacity:1;stroke:none"
       d="m 90.74704,636.91275 c -4.41817,0 -7.99955,3.13394 -7.99955,7.00001 0,1.89204 0.85858,3.60865 2.25251,4.86849 -0.11082,0.22135 -0.31583,0.52432 -0.6937,0.84768 -0.74858,0.64059 -1.55881,0.84243 -1.55881,0.84243 0,0 0.48178,0.23116 2.32789,0.15094 0.92903,-0.0404 1.60064,-0.26192 2.03893,-0.47124 1.09022,0.48714 2.32459,0.76169 3.63273,0.76169 4.41817,0 8.00045,-3.13394 8.00045,-6.99999 0,-3.86607 -3.58228,-7.00001 -8.00045,-7.00001 z"
       id="path3109"
       inkscape:connector-curvature="0"
       sodipodi:nodetypes="sscscccsss" />
    <path
       style="fill:#ffffff;fill-opacity:1;stroke:none"
       d="m 104,652.78125 0,2 1,0 0,-2 z"
       id="path4071"
       inkscape:connector-curvature="0" />
    <path
       style="fill:#ffffff;fill-opacity:1;stroke:none"
       d="m 106,651.78125 0,2 1,0 0,-2 z"
       id="path4073"
       inkscape:connector-curvature="0" />
    <path
       style="fill:#ffffff;fill-opacity:1;stroke:none"
       d="m 108,651.78125 0,2 1,0 0,-3 z"
       id="path4075"
       inkscape:connector-curvature="0"
       sodipodi:nodetypes="ccccc" />
    <path
       style="fill:#ffffff;fill-opacity:1;stroke:none"
       d="m 110,653.78125 0,-2 1,-1 1,0 0,2 -1,1 z"
       id="path4077"
       inkscape:connector-curvature="0"
       sodipodi:nodetypes="ccccccc" />
    <path
       style="fill:#ffffff;fill-opacity:1;stroke:none"
       d="m 5,10 0,-2 1,-1 2,0 2,0 1,1 0,1 -3,1 0,2 1,0 0,-1 1,-1 1,0 0,1 -2,2 -2,0 -2,-2 z"
       id="path4079"
       inkscape:connector-curvature="0"
       transform="translate(100,647.78125)"
       sodipodi:nodetypes="cccccccccccccccccc" />
  </g>
</svg>
