<?xml version="1.0" encoding="UTF-8" standalone="no"?>
<!-- Created with Inkscape (http://www.inkscape.org/) -->

<svg
   xmlns:dc="http://purl.org/dc/elements/1.1/"
   xmlns:cc="http://creativecommons.org/ns#"
   xmlns:rdf="http://www.w3.org/1999/02/22-rdf-syntax-ns#"
   xmlns:svg="http://www.w3.org/2000/svg"
   xmlns="http://www.w3.org/2000/svg"
   version="1.1"
   width="128"
   height="114.53879"
   id="svg2">
  <defs
     id="defs4" />
  <metadata
     id="metadata7">
    <rdf:RDF>
      <cc:Work
         rdf:about="">
        <dc:format>image/svg+xml</dc:format>
        <dc:type
           rdf:resource="http://purl.org/dc/dcmitype/StillImage" />
        <dc:title></dc:title>
      </cc:Work>
    </rdf:RDF>
  </metadata>
  <g
     transform="translate(-100,-549.24246)"
     id="layer1">
    <path
       d="m 163.99641,549.24246 c -35.34538,0 -63.99641,25.63982 -63.99641,57.2694 0,15.47956 6.86867,29.52363 18.02008,39.83083 -0.88653,1.81097 -2.52661,4.2897 -5.54961,6.93522 C 106.48185,658.51875 100,660.17005 100,660.17005 c 0,0 3.85427,1.89124 18.62314,1.23485 7.43224,-0.33033 12.80514,-2.14288 16.3114,-3.8553 8.72178,3.98551 18.59672,6.23165 29.06187,6.23165 35.34538,0 64.00359,-25.63981 64.00359,-57.26939 0,-31.62958 -28.65821,-57.2694 -64.00359,-57.2694 z m 25.42195,17.67548 c 16.47344,0 -1.02962,23.462 -10.29513,23.462 -9.26686,0 -6.17764,-23.462 10.29513,-23.462 z m -25.45067,2.8789 c 8.10885,0.0279 2.87736,17.96736 -1.90252,17.67548 -4.93607,-0.30131 -8.1933,-16.422 1.0769,-17.62522 0.2898,-0.0376 0.56405,-0.0512 0.82562,-0.0503 z m -16.06012,6.37523 c 5.78257,-0.12812 5.28695,14.49961 1.43586,15.28476 -4.1741,0.85304 -10.49501,-11.84394 -3.04403,-14.91861 0.582,-0.24016 1.11812,-0.35529 1.60817,-0.36615 z m -11.90331,9.94335 c 4.55355,0.10752 6.52264,11.89159 3.44607,13.24584 -3.50921,1.54403 -11.47824,-8.4067 -5.51371,-12.5279 0.65266,-0.45069 1.27401,-0.67724 1.85226,-0.71076 0.0736,-0.004 0.1431,-0.009 0.21538,-0.007 z m 33.12536,7.61726 c 8.11242,-0.072 14.80645,2.44996 15.67244,7.59571 2.67092,15.87016 -37.8508,21.66693 -22.5933,33.2833 4.79279,3.64916 9.68664,0.85041 8.94543,-4.81014 -0.61869,-4.72248 16.59738,-7.58206 15.24886,-0.44511 -1.76566,9.35925 -11.202,16.74934 -19.38415,16.74934 -16.63212,0 -32.57224,-19.34218 -29.45673,-33.28331 2.80473,-12.56046 18.91207,-18.97753 31.56745,-19.08979 z"
       id="path3109"
       style="fill:#3465a4;fill-opacity:1;stroke:none" />
  </g>
</svg>
